<?xml version="1.0" encoding="UTF-8" standalone="no"?>
<svg
   xmlns:dc="http://purl.org/dc/elements/1.1/"
   xmlns:cc="http://creativecommons.org/ns#"
   xmlns:rdf="http://www.w3.org/1999/02/22-rdf-syntax-ns#"
   xmlns:svg="http://www.w3.org/2000/svg"
   xmlns="http://www.w3.org/2000/svg"
   xmlns:sodipodi="http://sodipodi.sourceforge.net/DTD/sodipodi-0.dtd"
   xmlns:inkscape="http://www.inkscape.org/namespaces/inkscape"
   class="mycLogo"
   xlink="http://www.w3.org/1999/xlink"
   version="1.1"
   height="50.815067"
   width="46.666668"
   viewBox="4.54 -51.509998 46.666668 50.815067"
   id="svg402"
   sodipodi:docname="logo.svg"
   inkscape:version="1.0.1 (3bc2e813f5, 2020-09-07)">
  <metadata id="metadata408">
    <rdf:RDF>
      <cc:Work
         rdf:about="">
        <dc:format>image/svg+xml</dc:format>
        <dc:type
           rdf:resource="http://purl.org/dc/dcmitype/StillImage" />
        <dc:title></dc:title>
      </cc:Work>
    </rdf:RDF>
  </metadata>
  <defs id="defs406">
    <clipPath clipPathUnits="userSpaceOnUse" id="clipPath412">
      <rect
         style="fill:#ff00ff;stroke:#000000;stroke-width:1.78412"
         id="rect414"
         width="84.219154"
         height="95.891106"
         x="7.7574153"
         y="2.191649" />
    </clipPath>
  </defs>
  <g
     class="mycLogoIcon"
     transform="matrix(0.57810155,0,0,0.54343599,-1.0317428,-53.274535)"
     fill="#303030"
     id="g400"
     clip-path="url(#clipPath412)">
    <path
       d="M 36.703,11.011 9.638,26.636 V 38.757 L 36.703,23.131 63.767,38.757 V 26.636 Z M 63.298,89.092 36.233,73.467 V 61.348 L 63.298,76.973 90.362,61.348 v 12.119 z"
       id="path394"
       style="fill:#007cff; stroke-width:0.5; stroke:#303030" />
    <path
       d="M 9.638,42.012 36.703,26.386 47.198,32.446 20.134,48.072 V 79.324 L 9.638,73.264 Z M 77.083,18.872 50.018,3.247 39.522,9.307 66.586,24.932 v 31.252 l 10.497,-6.06 z"
       id="path396"
       style="fill:#fecc00; stroke-width:0.5; stroke:#303030" />
    <path
       d="m 23.01,81.127 10e-4,-31.251 10.496,-6.06 V 75.068 L 60.571,90.693 50.075,96.754 Z M 90.362,58.092 V 26.84 L 79.866,20.78 v 31.251 l -27.064,15.627 10.496,6.061 z"
       id="path398"
       style="fill:#e44d26; stroke-width:0.5; stroke:#303030" />
  </g>

</svg>
